G75*
G70*
%OFA0B0*%
%FSLAX24Y24*%
%IPPOS*%
%LPD*%
%AMOC8*
5,1,8,0,0,1.08239X$1,22.5*
%
%ADD10R,0.0260X0.0800*%
%ADD11C,0.0740*%
%ADD12R,0.0472X0.0315*%
%ADD13R,0.0236X0.0866*%
%ADD14C,0.0600*%
%ADD15C,0.0160*%
%ADD16C,0.0120*%
%ADD17C,0.0080*%
D10*
X003988Y002879D03*
X004488Y002879D03*
X004988Y002879D03*
X005488Y002879D03*
X005988Y002879D03*
X006488Y002879D03*
X006988Y002879D03*
X007488Y002879D03*
X007488Y005299D03*
X006988Y005299D03*
X006488Y005299D03*
X005988Y005299D03*
X005488Y005299D03*
X004988Y005299D03*
X004488Y005299D03*
X003988Y005299D03*
D11*
X002588Y005639D03*
X002588Y004639D03*
X002588Y003639D03*
X002588Y002639D03*
X002588Y001639D03*
X009748Y001589D03*
X009748Y002589D03*
X009748Y003589D03*
X009748Y004589D03*
X009748Y005589D03*
D12*
X008265Y002950D03*
X008265Y002242D03*
D13*
X007988Y006565D03*
X007488Y006565D03*
X006988Y006565D03*
X006488Y006565D03*
X005988Y006565D03*
X005488Y006565D03*
X004988Y006565D03*
X004488Y006565D03*
X004488Y008612D03*
X004988Y008612D03*
X005488Y008612D03*
X005988Y008612D03*
X006488Y008612D03*
X006988Y008612D03*
X007488Y008612D03*
X007988Y008612D03*
D14*
X007738Y010539D02*
X007738Y011139D01*
X008738Y011139D02*
X008738Y010539D01*
X009738Y010539D02*
X009738Y011139D01*
X006738Y011139D02*
X006738Y010539D01*
X005738Y010539D02*
X005738Y011139D01*
X004738Y011139D02*
X004738Y010539D01*
X003738Y010539D02*
X003738Y011139D01*
X002738Y011139D02*
X002738Y010539D01*
D15*
X001168Y011949D02*
X001168Y001268D01*
X002180Y001268D01*
X002168Y001280D01*
X002117Y001350D01*
X002078Y001427D01*
X002051Y001510D01*
X002038Y001595D01*
X002038Y001618D01*
X002567Y001618D01*
X002567Y001659D01*
X002038Y001659D01*
X002038Y001682D01*
X002051Y001767D01*
X002078Y001850D01*
X002117Y001927D01*
X002168Y001997D01*
X002229Y002058D01*
X002299Y002109D01*
X002377Y002148D01*
X002411Y002159D01*
X002299Y002206D01*
X002155Y002350D01*
X002078Y002537D01*
X002078Y002740D01*
X002155Y002927D01*
X002223Y002995D01*
X002172Y003046D01*
X001878Y003340D01*
X001878Y003506D01*
X001878Y004211D01*
X001995Y004328D01*
X002115Y004448D01*
X002078Y004537D01*
X002078Y004740D01*
X002155Y004927D01*
X002299Y005071D01*
X002462Y005138D01*
X002299Y005206D01*
X002155Y005350D01*
X002078Y005537D01*
X002078Y005740D01*
X002155Y005927D01*
X002299Y006071D01*
X002486Y006148D01*
X002689Y006148D01*
X002877Y006071D01*
X003020Y005927D01*
X003098Y005740D01*
X003098Y005537D01*
X003061Y005448D01*
X003704Y004805D01*
X003690Y004829D01*
X003678Y004875D01*
X003678Y005298D01*
X003987Y005298D01*
X003987Y005299D01*
X003678Y005299D01*
X003678Y005722D01*
X003690Y005768D01*
X003714Y005809D01*
X003747Y005843D01*
X003788Y005866D01*
X003834Y005878D01*
X003987Y005878D01*
X003987Y005299D01*
X003988Y005299D01*
X003988Y005878D01*
X004141Y005878D01*
X004187Y005866D01*
X004228Y005843D01*
X004262Y005809D01*
X004265Y005804D01*
X004288Y005826D01*
X004288Y006016D01*
X004230Y006074D01*
X004230Y007056D01*
X004312Y007138D01*
X004664Y007138D01*
X004738Y007064D01*
X004812Y007138D01*
X005164Y007138D01*
X005238Y007064D01*
X005312Y007138D01*
X005664Y007138D01*
X005738Y007064D01*
X005812Y007138D01*
X006164Y007138D01*
X006238Y007064D01*
X006312Y007138D01*
X006664Y007138D01*
X006738Y007064D01*
X006812Y007138D01*
X007164Y007138D01*
X007238Y007064D01*
X007312Y007138D01*
X007664Y007138D01*
X007738Y007064D01*
X007812Y007138D01*
X008164Y007138D01*
X008246Y007056D01*
X008246Y006074D01*
X008188Y006016D01*
X008188Y004331D01*
X008188Y004166D01*
X007671Y003649D01*
X007505Y003649D01*
X007311Y003649D01*
X007188Y003526D01*
X007188Y003406D01*
X007238Y003356D01*
X007300Y003418D01*
X007676Y003418D01*
X007758Y003336D01*
X007758Y002476D01*
X007821Y002413D01*
X007889Y002413D01*
X007889Y002457D01*
X007971Y002539D01*
X008559Y002539D01*
X008641Y002457D01*
X008641Y002450D01*
X008913Y002721D01*
X009030Y002838D01*
X009299Y002838D01*
X009315Y002877D01*
X009459Y003021D01*
X009622Y003088D01*
X009459Y003156D01*
X009315Y003300D01*
X009238Y003487D01*
X009238Y003690D01*
X009315Y003877D01*
X009459Y004021D01*
X009622Y004088D01*
X009459Y004156D01*
X009315Y004300D01*
X009238Y004487D01*
X009238Y004690D01*
X009315Y004877D01*
X009459Y005021D01*
X009622Y005088D01*
X009459Y005156D01*
X009315Y005300D01*
X009238Y005487D01*
X009238Y005690D01*
X009315Y005877D01*
X009459Y006021D01*
X009646Y006098D01*
X009849Y006098D01*
X010037Y006021D01*
X010180Y005877D01*
X010258Y005690D01*
X010258Y005487D01*
X010221Y005398D01*
X010327Y005292D01*
X010444Y005175D01*
X010444Y002452D01*
X010444Y002287D01*
X010136Y001978D01*
X010167Y001947D01*
X010218Y001877D01*
X010257Y001800D01*
X010284Y001717D01*
X010298Y001632D01*
X010298Y001609D01*
X009768Y001609D01*
X009768Y001568D01*
X010298Y001568D01*
X010298Y001545D01*
X010284Y001460D01*
X010257Y001377D01*
X010218Y001300D01*
X010195Y001268D01*
X010888Y001268D01*
X010888Y011949D01*
X001168Y011949D01*
X001168Y011869D02*
X010888Y011869D01*
X010888Y011711D02*
X001168Y011711D01*
X001168Y011552D02*
X002587Y011552D01*
X002650Y011578D02*
X002488Y011511D01*
X002365Y011388D01*
X002298Y011226D01*
X002298Y010451D01*
X002365Y010289D01*
X002488Y010165D01*
X002588Y010124D01*
X002588Y009646D01*
X002705Y009529D01*
X002945Y009289D01*
X003111Y009289D01*
X004145Y009289D01*
X004280Y009153D01*
X004230Y009103D01*
X004230Y008121D01*
X004312Y008039D01*
X004664Y008039D01*
X004738Y008113D01*
X004812Y008039D01*
X005164Y008039D01*
X005238Y008113D01*
X005312Y008039D01*
X005664Y008039D01*
X005738Y008113D01*
X005812Y008039D01*
X006164Y008039D01*
X006238Y008113D01*
X006312Y008039D01*
X006664Y008039D01*
X006738Y008113D01*
X006812Y008039D01*
X007164Y008039D01*
X007238Y008113D01*
X007312Y008039D01*
X007664Y008039D01*
X007738Y008113D01*
X007812Y008039D01*
X008164Y008039D01*
X008246Y008121D01*
X008246Y009049D01*
X009305Y009049D01*
X009471Y009049D01*
X009831Y009409D01*
X009948Y009526D01*
X009948Y010149D01*
X009987Y010165D01*
X010111Y010289D01*
X010178Y010451D01*
X010178Y011226D01*
X010111Y011388D01*
X009987Y011511D01*
X009825Y011578D01*
X009650Y011578D01*
X009488Y011511D01*
X009365Y011388D01*
X009298Y011226D01*
X009298Y010451D01*
X009365Y010289D01*
X009488Y010165D01*
X009548Y010141D01*
X009548Y009691D01*
X009305Y009448D01*
X008550Y009448D01*
X008871Y009769D01*
X008988Y009886D01*
X008988Y010166D01*
X009111Y010289D01*
X009178Y010451D01*
X009178Y011226D01*
X009111Y011388D01*
X008987Y011511D01*
X008825Y011578D01*
X008650Y011578D01*
X008488Y011511D01*
X008365Y011388D01*
X008298Y011226D01*
X008298Y010451D01*
X008365Y010289D01*
X008488Y010165D01*
X008588Y010124D01*
X008588Y010051D01*
X008345Y009808D01*
X007710Y009808D01*
X007791Y009889D01*
X007908Y010006D01*
X007908Y010133D01*
X007987Y010165D01*
X008111Y010289D01*
X008178Y010451D01*
X008178Y011226D01*
X008111Y011388D01*
X007987Y011511D01*
X007825Y011578D01*
X007650Y011578D01*
X007488Y011511D01*
X007365Y011388D01*
X007298Y011226D01*
X007298Y010451D01*
X007365Y010289D01*
X007486Y010168D01*
X007145Y010168D01*
X007028Y010051D01*
X006788Y009811D01*
X006788Y009646D01*
X006788Y009161D01*
X006738Y009111D01*
X006688Y009161D01*
X006688Y009746D01*
X006831Y009889D01*
X006948Y010006D01*
X006948Y010149D01*
X006987Y010165D01*
X007111Y010289D01*
X007178Y010451D01*
X007178Y011226D01*
X007111Y011388D01*
X006987Y011511D01*
X006825Y011578D01*
X006650Y011578D01*
X006488Y011511D01*
X006365Y011388D01*
X006298Y011226D01*
X006298Y010451D01*
X006365Y010289D01*
X006488Y010165D01*
X006526Y010150D01*
X006288Y009911D01*
X006288Y009746D01*
X006288Y009161D01*
X006238Y009111D01*
X006188Y009161D01*
X006188Y009806D01*
X006188Y009971D01*
X005990Y010169D01*
X006111Y010289D01*
X006178Y010451D01*
X006178Y011226D01*
X006111Y011388D01*
X005987Y011511D01*
X005825Y011578D01*
X005650Y011578D01*
X005488Y011511D01*
X005365Y011388D01*
X005298Y011226D01*
X005298Y010451D01*
X005365Y010289D01*
X005488Y010165D01*
X005588Y010124D01*
X005588Y010006D01*
X005705Y009889D01*
X005788Y009806D01*
X005788Y009161D01*
X005738Y009111D01*
X005688Y009161D01*
X005688Y009586D01*
X005688Y009751D01*
X005388Y010051D01*
X005271Y010168D01*
X005031Y010168D01*
X005010Y010189D01*
X005111Y010289D01*
X005178Y010451D01*
X005178Y011226D01*
X005111Y011388D01*
X004987Y011511D01*
X004825Y011578D01*
X004650Y011578D01*
X004488Y011511D01*
X004365Y011388D01*
X004298Y011226D01*
X004298Y010451D01*
X004365Y010289D01*
X004488Y010165D01*
X004508Y010158D01*
X004508Y010126D01*
X004625Y010009D01*
X004865Y009769D01*
X005031Y009769D01*
X005105Y009769D01*
X005288Y009586D01*
X005288Y009161D01*
X005238Y009111D01*
X005188Y009161D01*
X005188Y009246D01*
X005188Y009411D01*
X004548Y010051D01*
X004431Y010168D01*
X003990Y010168D01*
X004111Y010289D01*
X004178Y010451D01*
X004178Y011226D01*
X004111Y011388D01*
X003987Y011511D01*
X003825Y011578D01*
X003650Y011578D01*
X003488Y011511D01*
X003365Y011388D01*
X003298Y011226D01*
X003298Y010451D01*
X003365Y010289D01*
X003488Y010165D01*
X003548Y010141D01*
X003548Y010006D01*
X003665Y009889D01*
X003785Y009769D01*
X003951Y009769D01*
X004265Y009769D01*
X004788Y009246D01*
X004788Y009161D01*
X004738Y009111D01*
X004688Y009161D01*
X004688Y009311D01*
X004428Y009571D01*
X004311Y009688D01*
X003111Y009688D01*
X002988Y009811D01*
X002988Y010166D01*
X003111Y010289D01*
X003178Y010451D01*
X003178Y011226D01*
X003111Y011388D01*
X002987Y011511D01*
X002825Y011578D01*
X002650Y011578D01*
X002888Y011552D02*
X003587Y011552D01*
X003371Y011394D02*
X003105Y011394D01*
X003174Y011235D02*
X003302Y011235D01*
X003298Y011077D02*
X003178Y011077D01*
X003178Y010918D02*
X003298Y010918D01*
X003298Y010760D02*
X003178Y010760D01*
X003178Y010601D02*
X003298Y010601D01*
X003301Y010443D02*
X003174Y010443D01*
X003105Y010284D02*
X003370Y010284D01*
X003548Y010125D02*
X002988Y010125D01*
X002988Y009967D02*
X003586Y009967D01*
X003745Y009808D02*
X002991Y009808D01*
X002742Y009491D02*
X001168Y009491D01*
X001168Y009650D02*
X002588Y009650D01*
X002588Y009808D02*
X001168Y009808D01*
X001168Y009967D02*
X002588Y009967D01*
X002585Y010125D02*
X001168Y010125D01*
X001168Y010284D02*
X002370Y010284D01*
X002301Y010443D02*
X001168Y010443D01*
X001168Y010601D02*
X002298Y010601D01*
X002298Y010760D02*
X001168Y010760D01*
X001168Y010918D02*
X002298Y010918D01*
X002298Y011077D02*
X001168Y011077D01*
X001168Y011235D02*
X002302Y011235D01*
X002371Y011394D02*
X001168Y011394D01*
X001168Y009333D02*
X002901Y009333D01*
X002446Y008775D02*
X002149Y008898D01*
X001827Y008898D01*
X001529Y008775D01*
X001301Y008547D01*
X001178Y008250D01*
X001178Y007927D01*
X001301Y007630D01*
X001529Y007402D01*
X001827Y007279D01*
X002149Y007279D01*
X002446Y007402D01*
X002674Y007630D01*
X002798Y007927D01*
X002798Y008250D01*
X002674Y008547D01*
X002446Y008775D01*
X002523Y008699D02*
X004230Y008699D01*
X004230Y008540D02*
X002677Y008540D01*
X002743Y008381D02*
X004230Y008381D01*
X004230Y008223D02*
X002798Y008223D01*
X002798Y008064D02*
X004286Y008064D01*
X004689Y008064D02*
X004786Y008064D01*
X005189Y008064D02*
X005286Y008064D01*
X005689Y008064D02*
X005786Y008064D01*
X006189Y008064D02*
X006286Y008064D01*
X006689Y008064D02*
X006786Y008064D01*
X007189Y008064D02*
X007286Y008064D01*
X007689Y008064D02*
X007786Y008064D01*
X008189Y008064D02*
X009178Y008064D01*
X009178Y007927D02*
X009301Y007630D01*
X009529Y007402D01*
X009827Y007279D01*
X010149Y007279D01*
X010446Y007402D01*
X010674Y007630D01*
X010798Y007927D01*
X010798Y008250D01*
X010674Y008547D01*
X010446Y008775D01*
X010149Y008898D01*
X009827Y008898D01*
X009529Y008775D01*
X009301Y008547D01*
X009178Y008250D01*
X009178Y007927D01*
X009187Y007906D02*
X002789Y007906D01*
X002723Y007747D02*
X009252Y007747D01*
X009342Y007589D02*
X002633Y007589D01*
X002475Y007430D02*
X009501Y007430D01*
X009178Y008223D02*
X008246Y008223D01*
X008246Y008381D02*
X009232Y008381D01*
X009298Y008540D02*
X008246Y008540D01*
X008246Y008699D02*
X009452Y008699D01*
X009727Y008857D02*
X008246Y008857D01*
X008246Y009016D02*
X010888Y009016D01*
X010888Y009174D02*
X009596Y009174D01*
X009755Y009333D02*
X010888Y009333D01*
X010888Y009491D02*
X009913Y009491D01*
X009948Y009650D02*
X010888Y009650D01*
X010888Y009808D02*
X009948Y009808D01*
X009948Y009967D02*
X010888Y009967D01*
X010888Y010125D02*
X009948Y010125D01*
X010105Y010284D02*
X010888Y010284D01*
X010888Y010443D02*
X010174Y010443D01*
X010178Y010601D02*
X010888Y010601D01*
X010888Y010760D02*
X010178Y010760D01*
X010178Y010918D02*
X010888Y010918D01*
X010888Y011077D02*
X010178Y011077D01*
X010174Y011235D02*
X010888Y011235D01*
X010888Y011394D02*
X010105Y011394D01*
X009888Y011552D02*
X010888Y011552D01*
X009587Y011552D02*
X008888Y011552D01*
X009105Y011394D02*
X009371Y011394D01*
X009302Y011235D02*
X009174Y011235D01*
X009178Y011077D02*
X009298Y011077D01*
X009298Y010918D02*
X009178Y010918D01*
X009178Y010760D02*
X009298Y010760D01*
X009298Y010601D02*
X009178Y010601D01*
X009174Y010443D02*
X009301Y010443D01*
X009370Y010284D02*
X009105Y010284D01*
X008988Y010125D02*
X009548Y010125D01*
X009548Y009967D02*
X008988Y009967D01*
X008910Y009808D02*
X009548Y009808D01*
X009506Y009650D02*
X008752Y009650D01*
X008593Y009491D02*
X009348Y009491D01*
X008585Y010125D02*
X007908Y010125D01*
X007869Y009967D02*
X008503Y009967D01*
X008370Y010284D02*
X008105Y010284D01*
X008174Y010443D02*
X008301Y010443D01*
X008298Y010601D02*
X008178Y010601D01*
X008178Y010760D02*
X008298Y010760D01*
X008298Y010918D02*
X008178Y010918D01*
X008178Y011077D02*
X008298Y011077D01*
X008302Y011235D02*
X008174Y011235D01*
X008105Y011394D02*
X008371Y011394D01*
X008587Y011552D02*
X007888Y011552D01*
X007587Y011552D02*
X006888Y011552D01*
X007105Y011394D02*
X007371Y011394D01*
X007302Y011235D02*
X007174Y011235D01*
X007178Y011077D02*
X007298Y011077D01*
X007298Y010918D02*
X007178Y010918D01*
X007178Y010760D02*
X007298Y010760D01*
X007298Y010601D02*
X007178Y010601D01*
X007174Y010443D02*
X007301Y010443D01*
X007370Y010284D02*
X007105Y010284D01*
X007102Y010125D02*
X006948Y010125D01*
X006943Y009967D02*
X006909Y009967D01*
X006788Y009808D02*
X006750Y009808D01*
X006788Y009650D02*
X006688Y009650D01*
X006688Y009491D02*
X006788Y009491D01*
X006788Y009333D02*
X006688Y009333D01*
X006688Y009174D02*
X006788Y009174D01*
X006288Y009174D02*
X006188Y009174D01*
X006188Y009333D02*
X006288Y009333D01*
X006288Y009491D02*
X006188Y009491D01*
X006188Y009650D02*
X006288Y009650D01*
X006288Y009808D02*
X006188Y009808D01*
X006188Y009967D02*
X006343Y009967D01*
X006502Y010125D02*
X006034Y010125D01*
X006105Y010284D02*
X006370Y010284D01*
X006301Y010443D02*
X006174Y010443D01*
X006178Y010601D02*
X006298Y010601D01*
X006298Y010760D02*
X006178Y010760D01*
X006178Y010918D02*
X006298Y010918D01*
X006298Y011077D02*
X006178Y011077D01*
X006174Y011235D02*
X006302Y011235D01*
X006371Y011394D02*
X006105Y011394D01*
X005888Y011552D02*
X006587Y011552D01*
X005587Y011552D02*
X004888Y011552D01*
X005105Y011394D02*
X005371Y011394D01*
X005302Y011235D02*
X005174Y011235D01*
X005178Y011077D02*
X005298Y011077D01*
X005298Y010918D02*
X005178Y010918D01*
X005178Y010760D02*
X005298Y010760D01*
X005298Y010601D02*
X005178Y010601D01*
X005174Y010443D02*
X005301Y010443D01*
X005370Y010284D02*
X005105Y010284D01*
X005314Y010125D02*
X005585Y010125D01*
X005626Y009967D02*
X005472Y009967D01*
X005631Y009808D02*
X005785Y009808D01*
X005705Y009889D02*
X005705Y009889D01*
X005688Y009650D02*
X005788Y009650D01*
X005788Y009491D02*
X005688Y009491D01*
X005688Y009333D02*
X005788Y009333D01*
X005788Y009174D02*
X005688Y009174D01*
X005288Y009174D02*
X005188Y009174D01*
X005188Y009333D02*
X005288Y009333D01*
X005288Y009491D02*
X005108Y009491D01*
X005224Y009650D02*
X004949Y009650D01*
X004825Y009808D02*
X004791Y009808D01*
X004666Y009967D02*
X004632Y009967D01*
X004508Y010125D02*
X004474Y010125D01*
X004370Y010284D02*
X004105Y010284D01*
X004174Y010443D02*
X004301Y010443D01*
X004298Y010601D02*
X004178Y010601D01*
X004178Y010760D02*
X004298Y010760D01*
X004298Y010918D02*
X004178Y010918D01*
X004178Y011077D02*
X004298Y011077D01*
X004302Y011235D02*
X004174Y011235D01*
X004105Y011394D02*
X004371Y011394D01*
X004587Y011552D02*
X003888Y011552D01*
X004349Y009650D02*
X004384Y009650D01*
X004508Y009491D02*
X004542Y009491D01*
X004666Y009333D02*
X004701Y009333D01*
X004688Y009174D02*
X004788Y009174D01*
X004259Y009174D02*
X001168Y009174D01*
X001168Y009016D02*
X004230Y009016D01*
X004230Y008857D02*
X002248Y008857D01*
X001727Y008857D02*
X001168Y008857D01*
X001168Y008699D02*
X001452Y008699D01*
X001298Y008540D02*
X001168Y008540D01*
X001168Y008381D02*
X001232Y008381D01*
X001178Y008223D02*
X001168Y008223D01*
X001168Y008064D02*
X001178Y008064D01*
X001168Y007906D02*
X001187Y007906D01*
X001168Y007747D02*
X001252Y007747D01*
X001168Y007589D02*
X001342Y007589D01*
X001501Y007430D02*
X001168Y007430D01*
X001168Y007272D02*
X010888Y007272D01*
X010888Y007430D02*
X010475Y007430D01*
X010633Y007589D02*
X010888Y007589D01*
X010888Y007747D02*
X010723Y007747D01*
X010789Y007906D02*
X010888Y007906D01*
X010888Y008064D02*
X010798Y008064D01*
X010798Y008223D02*
X010888Y008223D01*
X010888Y008381D02*
X010743Y008381D01*
X010677Y008540D02*
X010888Y008540D01*
X010888Y008699D02*
X010523Y008699D01*
X010248Y008857D02*
X010888Y008857D01*
X010888Y007113D02*
X008189Y007113D01*
X008246Y006955D02*
X010888Y006955D01*
X010888Y006796D02*
X008246Y006796D01*
X008246Y006638D02*
X010888Y006638D01*
X010888Y006479D02*
X008246Y006479D01*
X008246Y006320D02*
X010888Y006320D01*
X010888Y006162D02*
X008246Y006162D01*
X008188Y006003D02*
X009441Y006003D01*
X009302Y005845D02*
X008188Y005845D01*
X008188Y005686D02*
X009238Y005686D01*
X009238Y005528D02*
X008188Y005528D01*
X008188Y005369D02*
X009286Y005369D01*
X009404Y005211D02*
X008188Y005211D01*
X008188Y005052D02*
X009534Y005052D01*
X009332Y004894D02*
X008188Y004894D01*
X008188Y004735D02*
X009256Y004735D01*
X009238Y004576D02*
X008188Y004576D01*
X008188Y004418D02*
X009266Y004418D01*
X009356Y004259D02*
X008188Y004259D01*
X008123Y004101D02*
X009592Y004101D01*
X009380Y003942D02*
X007964Y003942D01*
X007806Y003784D02*
X009277Y003784D01*
X009238Y003625D02*
X007287Y003625D01*
X007188Y003467D02*
X009246Y003467D01*
X009312Y003308D02*
X007758Y003308D01*
X007885Y003218D02*
X007861Y003177D01*
X007849Y003131D01*
X007849Y002950D01*
X007849Y002769D01*
X007861Y002723D01*
X007885Y002682D01*
X007918Y002649D01*
X007959Y002625D01*
X008005Y002613D01*
X008265Y002613D01*
X008265Y002950D01*
X008265Y002950D01*
X007849Y002950D01*
X008265Y002950D01*
X008265Y002950D01*
X008265Y002613D01*
X008525Y002613D01*
X008571Y002625D01*
X008612Y002649D01*
X008645Y002682D01*
X008669Y002723D01*
X008681Y002769D01*
X008681Y002950D01*
X008266Y002950D01*
X008266Y002950D01*
X008681Y002950D01*
X008681Y003131D01*
X008669Y003177D01*
X008645Y003218D01*
X008612Y003252D01*
X008571Y003275D01*
X008525Y003288D01*
X008265Y003288D01*
X008005Y003288D01*
X007959Y003275D01*
X007918Y003252D01*
X007885Y003218D01*
X007854Y003150D02*
X007758Y003150D01*
X007758Y002991D02*
X007849Y002991D01*
X007849Y002832D02*
X007758Y002832D01*
X007758Y002674D02*
X007893Y002674D01*
X007947Y002515D02*
X007758Y002515D01*
X008265Y002674D02*
X008265Y002674D01*
X008265Y002832D02*
X008265Y002832D01*
X008265Y002951D02*
X008265Y003288D01*
X008265Y002951D01*
X008265Y002951D01*
X008265Y002991D02*
X008265Y002991D01*
X008265Y003150D02*
X008265Y003150D01*
X008677Y003150D02*
X009475Y003150D01*
X009429Y002991D02*
X008681Y002991D01*
X008681Y002832D02*
X009024Y002832D01*
X008865Y002674D02*
X008637Y002674D01*
X008583Y002515D02*
X008707Y002515D01*
X009245Y001813D02*
X009238Y001800D01*
X009211Y001717D01*
X009198Y001632D01*
X009198Y001609D01*
X009727Y001609D01*
X009727Y001568D01*
X009198Y001568D01*
X009198Y001545D01*
X009211Y001460D01*
X009238Y001377D01*
X009277Y001300D01*
X009300Y001268D01*
X002995Y001268D01*
X003007Y001280D01*
X003058Y001350D01*
X003097Y001427D01*
X003124Y001510D01*
X003138Y001595D01*
X003138Y001618D01*
X002608Y001618D01*
X002608Y001659D01*
X003138Y001659D01*
X003138Y001682D01*
X003124Y001767D01*
X003097Y001850D01*
X003058Y001927D01*
X003007Y001997D01*
X002946Y002058D01*
X002876Y002109D01*
X002799Y002148D01*
X002764Y002159D01*
X002877Y002206D01*
X003020Y002350D01*
X003098Y002537D01*
X003098Y002740D01*
X003020Y002927D01*
X003019Y002929D01*
X003036Y002929D01*
X003202Y002929D01*
X003662Y003389D01*
X003770Y003389D01*
X003718Y003336D01*
X003718Y002420D01*
X003788Y002350D01*
X003788Y002171D01*
X003788Y002006D01*
X004038Y001756D01*
X004155Y001639D01*
X009071Y001639D01*
X009188Y001756D01*
X009245Y001813D01*
X009188Y001756D02*
X009188Y001756D01*
X009213Y001723D02*
X009155Y001723D01*
X009198Y001564D02*
X003133Y001564D01*
X003131Y001723D02*
X004071Y001723D01*
X003912Y001881D02*
X003081Y001881D01*
X002964Y002040D02*
X003788Y002040D01*
X003788Y002198D02*
X002858Y002198D01*
X003023Y002357D02*
X003781Y002357D01*
X003718Y002515D02*
X003089Y002515D01*
X003098Y002674D02*
X003718Y002674D01*
X003718Y002832D02*
X003059Y002832D01*
X003264Y002991D02*
X003718Y002991D01*
X003718Y003150D02*
X003423Y003150D01*
X003581Y003308D02*
X003718Y003308D01*
X003970Y004539D02*
X003764Y004744D01*
X003788Y004731D01*
X003834Y004719D01*
X003987Y004719D01*
X003987Y005298D01*
X003988Y005298D01*
X003988Y004719D01*
X004141Y004719D01*
X004187Y004731D01*
X004228Y004754D01*
X004262Y004788D01*
X004265Y004793D01*
X004300Y004759D01*
X004676Y004759D01*
X004738Y004821D01*
X004800Y004759D01*
X005176Y004759D01*
X005238Y004821D01*
X005300Y004759D01*
X005676Y004759D01*
X005738Y004821D01*
X005800Y004759D01*
X006176Y004759D01*
X006238Y004821D01*
X006300Y004759D01*
X006676Y004759D01*
X006738Y004821D01*
X006800Y004759D01*
X007176Y004759D01*
X007238Y004821D01*
X007300Y004759D01*
X007676Y004759D01*
X007758Y004840D01*
X007758Y005756D01*
X007688Y005826D01*
X007688Y006016D01*
X007738Y006066D01*
X007788Y006016D01*
X007788Y004331D01*
X007505Y004048D01*
X007145Y004048D01*
X007028Y003931D01*
X006788Y003691D01*
X006788Y003526D01*
X006788Y003406D01*
X006738Y003356D01*
X006688Y003406D01*
X006688Y003481D01*
X005631Y004539D01*
X005465Y004539D01*
X003970Y004539D01*
X003933Y004576D02*
X007788Y004576D01*
X007788Y004418D02*
X005751Y004418D01*
X005910Y004259D02*
X007716Y004259D01*
X007557Y004101D02*
X006068Y004101D01*
X006227Y003942D02*
X007039Y003942D01*
X006880Y003784D02*
X006385Y003784D01*
X006544Y003625D02*
X006788Y003625D01*
X006788Y003467D02*
X006688Y003467D01*
X007788Y004735D02*
X004194Y004735D01*
X003988Y004735D02*
X003987Y004735D01*
X003987Y004894D02*
X003988Y004894D01*
X003987Y005052D02*
X003988Y005052D01*
X003987Y005211D02*
X003988Y005211D01*
X003987Y005369D02*
X003988Y005369D01*
X003987Y005528D02*
X003988Y005528D01*
X003987Y005686D02*
X003988Y005686D01*
X003987Y005845D02*
X003988Y005845D01*
X004224Y005845D02*
X004288Y005845D01*
X004288Y006003D02*
X002944Y006003D01*
X003054Y005845D02*
X003751Y005845D01*
X003678Y005686D02*
X003098Y005686D01*
X003094Y005528D02*
X003678Y005528D01*
X003678Y005369D02*
X003140Y005369D01*
X003298Y005211D02*
X003678Y005211D01*
X003678Y005052D02*
X003457Y005052D01*
X003615Y004894D02*
X003678Y004894D01*
X003774Y004735D02*
X003781Y004735D01*
X002280Y005052D02*
X001168Y005052D01*
X001168Y004894D02*
X002141Y004894D01*
X002078Y004735D02*
X001168Y004735D01*
X001168Y004576D02*
X002078Y004576D01*
X002084Y004418D02*
X001168Y004418D01*
X001168Y004259D02*
X001926Y004259D01*
X001878Y004101D02*
X001168Y004101D01*
X001168Y003942D02*
X001878Y003942D01*
X001878Y003784D02*
X001168Y003784D01*
X001168Y003625D02*
X001878Y003625D01*
X001878Y003467D02*
X001168Y003467D01*
X001168Y003308D02*
X001909Y003308D01*
X002068Y003150D02*
X001168Y003150D01*
X001168Y002991D02*
X002219Y002991D01*
X002116Y002832D02*
X001168Y002832D01*
X001168Y002674D02*
X002078Y002674D01*
X002087Y002515D02*
X001168Y002515D01*
X001168Y002357D02*
X002152Y002357D01*
X002318Y002198D02*
X001168Y002198D01*
X001168Y002040D02*
X002211Y002040D01*
X002094Y001881D02*
X001168Y001881D01*
X001168Y001723D02*
X002044Y001723D01*
X002043Y001564D02*
X001168Y001564D01*
X001168Y001406D02*
X002089Y001406D01*
X003086Y001406D02*
X009229Y001406D01*
X010267Y001406D02*
X010888Y001406D01*
X010888Y001564D02*
X010298Y001564D01*
X010282Y001723D02*
X010888Y001723D01*
X010888Y001881D02*
X010215Y001881D01*
X010197Y002040D02*
X010888Y002040D01*
X010888Y002198D02*
X010356Y002198D01*
X010444Y002357D02*
X010888Y002357D01*
X010888Y002515D02*
X010444Y002515D01*
X010444Y002674D02*
X010888Y002674D01*
X010888Y002832D02*
X010444Y002832D01*
X010444Y002991D02*
X010888Y002991D01*
X010888Y003150D02*
X010444Y003150D01*
X010444Y003308D02*
X010888Y003308D01*
X010888Y003467D02*
X010444Y003467D01*
X010444Y003625D02*
X010888Y003625D01*
X010888Y003784D02*
X010444Y003784D01*
X010444Y003942D02*
X010888Y003942D01*
X010888Y004101D02*
X010444Y004101D01*
X010444Y004259D02*
X010888Y004259D01*
X010888Y004418D02*
X010444Y004418D01*
X010444Y004576D02*
X010888Y004576D01*
X010888Y004735D02*
X010444Y004735D01*
X010444Y004894D02*
X010888Y004894D01*
X010888Y005052D02*
X010444Y005052D01*
X010408Y005211D02*
X010888Y005211D01*
X010888Y005369D02*
X010250Y005369D01*
X010258Y005528D02*
X010888Y005528D01*
X010888Y005686D02*
X010258Y005686D01*
X010194Y005845D02*
X010888Y005845D01*
X010888Y006003D02*
X010054Y006003D01*
X007788Y006003D02*
X007688Y006003D01*
X007688Y005845D02*
X007788Y005845D01*
X007788Y005686D02*
X007758Y005686D01*
X007758Y005528D02*
X007788Y005528D01*
X007788Y005369D02*
X007758Y005369D01*
X007758Y005211D02*
X007788Y005211D01*
X007788Y005052D02*
X007758Y005052D01*
X007758Y004894D02*
X007788Y004894D01*
X007787Y007113D02*
X007689Y007113D01*
X007287Y007113D02*
X007189Y007113D01*
X006787Y007113D02*
X006689Y007113D01*
X006287Y007113D02*
X006189Y007113D01*
X005787Y007113D02*
X005689Y007113D01*
X005287Y007113D02*
X005189Y007113D01*
X004787Y007113D02*
X004689Y007113D01*
X004287Y007113D02*
X001168Y007113D01*
X001168Y006955D02*
X004230Y006955D01*
X004230Y006796D02*
X001168Y006796D01*
X001168Y006638D02*
X004230Y006638D01*
X004230Y006479D02*
X001168Y006479D01*
X001168Y006320D02*
X004230Y006320D01*
X004230Y006162D02*
X001168Y006162D01*
X001168Y006003D02*
X002231Y006003D01*
X002121Y005845D02*
X001168Y005845D01*
X001168Y005686D02*
X002078Y005686D01*
X002082Y005528D02*
X001168Y005528D01*
X001168Y005369D02*
X002147Y005369D01*
X002294Y005211D02*
X001168Y005211D01*
D16*
X002078Y004128D02*
X002078Y003423D01*
X002372Y003129D01*
X003119Y003129D01*
X003579Y003589D01*
X004863Y003589D01*
X004988Y003464D01*
X004988Y002879D01*
X005488Y002879D02*
X005488Y003464D01*
X005113Y003839D01*
X002788Y003839D01*
X002588Y003639D01*
X002078Y004128D02*
X002588Y004639D01*
X002588Y005639D02*
X003888Y004339D01*
X005548Y004339D01*
X006488Y003399D01*
X006488Y002879D01*
X006988Y002879D02*
X006988Y003609D01*
X007228Y003849D01*
X007588Y003849D01*
X007988Y004249D01*
X007988Y006565D01*
X007488Y006565D02*
X007488Y005299D01*
X006988Y005299D02*
X006988Y006565D01*
X006488Y006565D02*
X006488Y005299D01*
X005988Y005299D02*
X005988Y006565D01*
X005488Y006565D02*
X005488Y005299D01*
X004988Y005299D02*
X004988Y006565D01*
X004488Y006565D02*
X004488Y005299D01*
X004488Y002879D02*
X004488Y002339D01*
X004613Y002214D01*
X007738Y002214D01*
X007488Y002464D01*
X007488Y002879D01*
X007468Y002859D01*
X007738Y002214D02*
X008237Y002214D01*
X008265Y002242D01*
X008716Y002242D01*
X009113Y002639D01*
X009698Y002639D01*
X009748Y002589D01*
X010244Y002370D02*
X009963Y002089D01*
X009238Y002089D01*
X008988Y001839D01*
X004238Y001839D01*
X003988Y002089D01*
X003988Y002879D01*
X009748Y005589D02*
X010244Y005092D01*
X010244Y002370D01*
X007988Y008612D02*
X007988Y009169D01*
X008068Y009249D01*
X009388Y009249D01*
X009748Y009609D01*
X009748Y010829D01*
X009738Y010839D01*
X008788Y010789D02*
X008788Y009969D01*
X008428Y009609D01*
X007588Y009609D01*
X007488Y009509D01*
X007488Y008612D01*
X006988Y008612D02*
X006988Y009729D01*
X007228Y009969D01*
X007588Y009969D01*
X007708Y010089D01*
X007708Y010809D01*
X007738Y010839D01*
X008738Y010839D02*
X008788Y010789D01*
X006748Y010829D02*
X006748Y010089D01*
X006488Y009829D01*
X006488Y008612D01*
X005988Y008612D02*
X005988Y009889D01*
X005788Y010089D01*
X005788Y010789D01*
X005738Y010839D01*
X006738Y010839D02*
X006748Y010829D01*
X005488Y009669D02*
X005188Y009969D01*
X004948Y009969D01*
X004708Y010209D01*
X004708Y010809D01*
X004738Y010839D01*
X004348Y009969D02*
X003868Y009969D01*
X003748Y010089D01*
X003748Y010829D01*
X003738Y010839D01*
X002788Y010789D02*
X002738Y010839D01*
X002788Y010789D02*
X002788Y009729D01*
X003028Y009489D01*
X004228Y009489D01*
X004488Y009229D01*
X004488Y008612D01*
X004988Y008612D02*
X004988Y009329D01*
X004348Y009969D01*
X005488Y009669D02*
X005488Y008612D01*
D17*
X004488Y002879D02*
X004508Y002849D01*
M02*
