G75*
G70*
%OFA0B0*%
%FSLAX24Y24*%
%IPPOS*%
%LPD*%
%AMOC8*
5,1,8,0,0,1.08239X$1,22.5*
%
%ADD10C,0.1300*%
%ADD11R,0.0300X0.0840*%
%ADD12C,0.0780*%
%ADD13R,0.0512X0.0355*%
%ADD14R,0.0276X0.0906*%
%ADD15C,0.0640*%
D10*
X001988Y008089D03*
X009988Y008089D03*
D11*
X007488Y005299D03*
X006988Y005299D03*
X006488Y005299D03*
X005988Y005299D03*
X005488Y005299D03*
X004988Y005299D03*
X004488Y005299D03*
X003988Y005299D03*
X003988Y002879D03*
X004488Y002879D03*
X004988Y002879D03*
X005488Y002879D03*
X005988Y002879D03*
X006488Y002879D03*
X006988Y002879D03*
X007488Y002879D03*
D12*
X002588Y001639D03*
X002588Y002639D03*
X002588Y003639D03*
X002588Y004639D03*
X002588Y005639D03*
X009748Y005589D03*
X009748Y004589D03*
X009748Y003589D03*
X009748Y002589D03*
X009748Y001589D03*
D13*
X008265Y002242D03*
X008265Y002950D03*
D14*
X007988Y006565D03*
X007488Y006565D03*
X006988Y006565D03*
X006488Y006565D03*
X005988Y006565D03*
X005488Y006565D03*
X004988Y006565D03*
X004488Y006565D03*
X004488Y008612D03*
X004988Y008612D03*
X005488Y008612D03*
X005988Y008612D03*
X006488Y008612D03*
X006988Y008612D03*
X007488Y008612D03*
X007988Y008612D03*
D15*
X007738Y010539D02*
X007738Y011139D01*
X008738Y011139D02*
X008738Y010539D01*
X009738Y010539D02*
X009738Y011139D01*
X006738Y011139D02*
X006738Y010539D01*
X005738Y010539D02*
X005738Y011139D01*
X004738Y011139D02*
X004738Y010539D01*
X003738Y010539D02*
X003738Y011139D01*
X002738Y011139D02*
X002738Y010539D01*
M02*
