G75*
G70*
%OFA0B0*%
%FSLAX24Y24*%
%IPPOS*%
%LPD*%
%AMOC8*
5,1,8,0,0,1.08239X$1,22.5*
%
%ADD10C,0.0000*%
%ADD11C,0.0050*%
D10*
X000988Y001089D02*
X000988Y012129D01*
X011068Y012129D01*
X011068Y001089D01*
X000988Y001089D01*
X001358Y008089D02*
X001360Y008139D01*
X001366Y008189D01*
X001376Y008238D01*
X001390Y008286D01*
X001407Y008333D01*
X001428Y008378D01*
X001453Y008422D01*
X001481Y008463D01*
X001513Y008502D01*
X001547Y008539D01*
X001584Y008573D01*
X001624Y008603D01*
X001666Y008630D01*
X001710Y008654D01*
X001756Y008675D01*
X001803Y008691D01*
X001851Y008704D01*
X001901Y008713D01*
X001950Y008718D01*
X002001Y008719D01*
X002051Y008716D01*
X002100Y008709D01*
X002149Y008698D01*
X002197Y008683D01*
X002243Y008665D01*
X002288Y008643D01*
X002331Y008617D01*
X002372Y008588D01*
X002411Y008556D01*
X002447Y008521D01*
X002479Y008483D01*
X002509Y008443D01*
X002536Y008400D01*
X002559Y008356D01*
X002578Y008310D01*
X002594Y008262D01*
X002606Y008213D01*
X002614Y008164D01*
X002618Y008114D01*
X002618Y008064D01*
X002614Y008014D01*
X002606Y007965D01*
X002594Y007916D01*
X002578Y007868D01*
X002559Y007822D01*
X002536Y007778D01*
X002509Y007735D01*
X002479Y007695D01*
X002447Y007657D01*
X002411Y007622D01*
X002372Y007590D01*
X002331Y007561D01*
X002288Y007535D01*
X002243Y007513D01*
X002197Y007495D01*
X002149Y007480D01*
X002100Y007469D01*
X002051Y007462D01*
X002001Y007459D01*
X001950Y007460D01*
X001901Y007465D01*
X001851Y007474D01*
X001803Y007487D01*
X001756Y007503D01*
X001710Y007524D01*
X001666Y007548D01*
X001624Y007575D01*
X001584Y007605D01*
X001547Y007639D01*
X001513Y007676D01*
X001481Y007715D01*
X001453Y007756D01*
X001428Y007800D01*
X001407Y007845D01*
X001390Y007892D01*
X001376Y007940D01*
X001366Y007989D01*
X001360Y008039D01*
X001358Y008089D01*
X009358Y008089D02*
X009360Y008139D01*
X009366Y008189D01*
X009376Y008238D01*
X009390Y008286D01*
X009407Y008333D01*
X009428Y008378D01*
X009453Y008422D01*
X009481Y008463D01*
X009513Y008502D01*
X009547Y008539D01*
X009584Y008573D01*
X009624Y008603D01*
X009666Y008630D01*
X009710Y008654D01*
X009756Y008675D01*
X009803Y008691D01*
X009851Y008704D01*
X009901Y008713D01*
X009950Y008718D01*
X010001Y008719D01*
X010051Y008716D01*
X010100Y008709D01*
X010149Y008698D01*
X010197Y008683D01*
X010243Y008665D01*
X010288Y008643D01*
X010331Y008617D01*
X010372Y008588D01*
X010411Y008556D01*
X010447Y008521D01*
X010479Y008483D01*
X010509Y008443D01*
X010536Y008400D01*
X010559Y008356D01*
X010578Y008310D01*
X010594Y008262D01*
X010606Y008213D01*
X010614Y008164D01*
X010618Y008114D01*
X010618Y008064D01*
X010614Y008014D01*
X010606Y007965D01*
X010594Y007916D01*
X010578Y007868D01*
X010559Y007822D01*
X010536Y007778D01*
X010509Y007735D01*
X010479Y007695D01*
X010447Y007657D01*
X010411Y007622D01*
X010372Y007590D01*
X010331Y007561D01*
X010288Y007535D01*
X010243Y007513D01*
X010197Y007495D01*
X010149Y007480D01*
X010100Y007469D01*
X010051Y007462D01*
X010001Y007459D01*
X009950Y007460D01*
X009901Y007465D01*
X009851Y007474D01*
X009803Y007487D01*
X009756Y007503D01*
X009710Y007524D01*
X009666Y007548D01*
X009624Y007575D01*
X009584Y007605D01*
X009547Y007639D01*
X009513Y007676D01*
X009481Y007715D01*
X009453Y007756D01*
X009428Y007800D01*
X009407Y007845D01*
X009390Y007892D01*
X009376Y007940D01*
X009366Y007989D01*
X009360Y008039D01*
X009358Y008089D01*
D11*
X008838Y008534D02*
X008838Y008579D01*
X008793Y008624D01*
X008703Y008624D01*
X008658Y008579D01*
X008658Y008534D01*
X008703Y008489D01*
X008793Y008489D01*
X008838Y008534D01*
X008793Y008624D02*
X008838Y008669D01*
X008838Y008714D01*
X008793Y008759D01*
X008703Y008759D01*
X008658Y008714D01*
X008658Y008669D01*
X008703Y008624D01*
X008248Y008714D02*
X008248Y008534D01*
X008203Y008489D01*
X008113Y008489D01*
X008068Y008534D01*
X007954Y008489D02*
X007954Y008759D01*
X007909Y008669D02*
X007819Y008669D01*
X007774Y008624D01*
X007774Y008489D01*
X007659Y008534D02*
X007614Y008579D01*
X007479Y008579D01*
X007479Y008624D02*
X007479Y008489D01*
X007614Y008489D01*
X007659Y008534D01*
X007614Y008669D02*
X007524Y008669D01*
X007479Y008624D01*
X007364Y008669D02*
X007364Y008489D01*
X007364Y008669D02*
X007229Y008669D01*
X007184Y008624D01*
X007184Y008489D01*
X007070Y008489D02*
X007070Y008669D01*
X006935Y008669D01*
X006890Y008624D01*
X006890Y008489D01*
X006775Y008534D02*
X006775Y008624D01*
X006730Y008669D01*
X006640Y008669D01*
X006595Y008624D01*
X006595Y008579D01*
X006775Y008579D01*
X006775Y008534D02*
X006730Y008489D01*
X006640Y008489D01*
X006481Y008489D02*
X006391Y008489D01*
X006436Y008489D02*
X006436Y008759D01*
X006481Y008759D01*
X006534Y009114D02*
X006354Y009114D01*
X006239Y009159D02*
X006239Y009339D01*
X006194Y009384D01*
X006104Y009384D01*
X006059Y009339D01*
X005945Y009384D02*
X005765Y009384D01*
X005855Y009384D02*
X005855Y009114D01*
X005650Y009114D02*
X005650Y009384D01*
X005515Y009384D01*
X005470Y009339D01*
X005470Y009249D01*
X005515Y009204D01*
X005650Y009204D01*
X005560Y009204D02*
X005470Y009114D01*
X005356Y009159D02*
X005311Y009114D01*
X005220Y009114D01*
X005175Y009159D01*
X005175Y009339D01*
X005220Y009384D01*
X005311Y009384D01*
X005356Y009339D01*
X005356Y009159D01*
X005061Y009114D02*
X005061Y009384D01*
X004881Y009114D01*
X004881Y009384D01*
X004766Y009384D02*
X004676Y009384D01*
X004721Y009384D02*
X004721Y009114D01*
X004766Y009114D02*
X004676Y009114D01*
X004570Y009159D02*
X004570Y009339D01*
X004525Y009384D01*
X004435Y009384D01*
X004390Y009339D01*
X004275Y009339D02*
X004230Y009384D01*
X004140Y009384D01*
X004095Y009339D01*
X004140Y009249D02*
X004095Y009204D01*
X004095Y009159D01*
X004140Y009114D01*
X004230Y009114D01*
X004275Y009159D01*
X004230Y009249D02*
X004140Y009249D01*
X004230Y009249D02*
X004275Y009294D01*
X004275Y009339D01*
X004390Y009159D02*
X004435Y009114D01*
X004525Y009114D01*
X004570Y009159D01*
X004676Y008759D02*
X004766Y008759D01*
X004811Y008714D01*
X004811Y008669D01*
X004766Y008624D01*
X004676Y008624D01*
X004631Y008579D01*
X004631Y008534D01*
X004676Y008489D01*
X004766Y008489D01*
X004811Y008534D01*
X004631Y008714D02*
X004676Y008759D01*
X004516Y008669D02*
X004426Y008669D01*
X004471Y008714D02*
X004471Y008534D01*
X004426Y008489D01*
X004320Y008534D02*
X004275Y008579D01*
X004140Y008579D01*
X004140Y008624D02*
X004140Y008489D01*
X004275Y008489D01*
X004320Y008534D01*
X004275Y008669D02*
X004185Y008669D01*
X004140Y008624D01*
X004025Y008624D02*
X004025Y008534D01*
X003980Y008489D01*
X003845Y008489D01*
X003731Y008489D02*
X003731Y008759D01*
X003845Y008669D02*
X003980Y008669D01*
X004025Y008624D01*
X003731Y008579D02*
X003595Y008669D01*
X003485Y008624D02*
X003485Y008534D01*
X003440Y008489D01*
X003350Y008489D01*
X003305Y008579D02*
X003485Y008579D01*
X003485Y008624D02*
X003440Y008669D01*
X003350Y008669D01*
X003305Y008624D01*
X003305Y008579D01*
X003190Y008579D02*
X003100Y008669D01*
X003055Y008669D01*
X003190Y008669D02*
X003190Y008489D01*
X003595Y008489D02*
X003731Y008579D01*
X003814Y008009D02*
X003769Y007964D01*
X003814Y008009D02*
X003904Y008009D01*
X003949Y007964D01*
X003949Y007784D01*
X003904Y007739D01*
X003814Y007739D01*
X003769Y007784D01*
X003655Y007784D02*
X003610Y007739D01*
X003520Y007739D01*
X003475Y007784D01*
X003475Y007964D01*
X003520Y008009D01*
X003610Y008009D01*
X003655Y007964D01*
X003655Y007784D01*
X003360Y007739D02*
X003360Y008009D01*
X003270Y007919D01*
X003180Y008009D01*
X003180Y007739D01*
X004052Y007739D02*
X004097Y007739D01*
X004097Y007784D01*
X004052Y007784D01*
X004052Y007739D01*
X004211Y007784D02*
X004256Y007739D01*
X004346Y007739D01*
X004391Y007784D01*
X004391Y007964D01*
X004346Y008009D01*
X004256Y008009D01*
X004211Y007964D01*
X004498Y008009D02*
X004588Y008009D01*
X004543Y008009D02*
X004543Y007739D01*
X004588Y007739D02*
X004498Y007739D01*
X004702Y008009D02*
X004882Y008009D01*
X004792Y008009D02*
X004792Y007739D01*
X004997Y007784D02*
X004997Y008009D01*
X005177Y008009D02*
X005177Y007784D01*
X005132Y007739D01*
X005042Y007739D01*
X004997Y007784D01*
X005291Y007739D02*
X005291Y007919D01*
X005382Y008009D01*
X005472Y007919D01*
X005472Y007739D01*
X005472Y007874D02*
X005291Y007874D01*
X005586Y008009D02*
X005766Y008009D01*
X005676Y008009D02*
X005676Y007739D01*
X005869Y007739D02*
X005914Y007739D01*
X005914Y007784D01*
X005869Y007784D01*
X005869Y007739D01*
X006028Y007739D02*
X006028Y008009D01*
X006118Y007829D02*
X006028Y007739D01*
X006118Y007829D02*
X006208Y007739D01*
X006208Y008009D01*
X006323Y008009D02*
X006323Y007739D01*
X006413Y007829D01*
X006503Y007739D01*
X006503Y008009D01*
X006617Y008009D02*
X006617Y007739D01*
X006707Y007829D01*
X006798Y007739D01*
X006798Y008009D01*
X006912Y008009D02*
X007092Y007739D01*
X007207Y008009D02*
X007387Y007739D01*
X007489Y007739D02*
X007534Y007739D01*
X007534Y007784D01*
X007489Y007784D01*
X007489Y007739D01*
X007489Y007874D02*
X007534Y007874D01*
X007534Y007919D01*
X007489Y007919D01*
X007489Y007874D01*
X007649Y007874D02*
X007649Y007964D01*
X007694Y008009D01*
X007829Y008009D01*
X007829Y007739D01*
X007829Y007829D02*
X007694Y007829D01*
X007649Y007874D01*
X007943Y008009D02*
X008123Y008009D01*
X008033Y008009D02*
X008033Y007739D01*
X008328Y007739D02*
X008328Y008009D01*
X008418Y008009D02*
X008238Y008009D01*
X008533Y008009D02*
X008533Y007739D01*
X008533Y007874D02*
X008713Y007874D01*
X008713Y007739D02*
X008713Y008009D01*
X008248Y008714D02*
X008203Y008759D01*
X008113Y008759D01*
X008068Y008714D01*
X007954Y008624D02*
X007909Y008669D01*
X007909Y009114D02*
X007819Y009114D01*
X007864Y009114D02*
X007864Y009384D01*
X007909Y009384D02*
X007819Y009384D01*
X007713Y009339D02*
X007713Y009159D01*
X007668Y009114D01*
X007578Y009114D01*
X007533Y009159D01*
X007533Y009339D02*
X007578Y009384D01*
X007668Y009384D01*
X007713Y009339D01*
X008024Y009384D02*
X008204Y009384D01*
X008114Y009384D02*
X008114Y009114D01*
X008318Y009159D02*
X008318Y009384D01*
X008498Y009384D02*
X008498Y009159D01*
X008453Y009114D01*
X008363Y009114D01*
X008318Y009159D01*
X008613Y009114D02*
X008613Y009294D01*
X008703Y009384D01*
X008793Y009294D01*
X008793Y009114D01*
X008793Y009249D02*
X008613Y009249D01*
X008908Y009384D02*
X009088Y009384D01*
X008998Y009384D02*
X008998Y009114D01*
X007123Y009114D02*
X006943Y009114D01*
X006829Y009114D02*
X006649Y009114D01*
X006534Y009114D02*
X006534Y009384D01*
X006354Y009384D01*
X006444Y009249D02*
X006534Y009249D01*
X006239Y009159D02*
X006194Y009114D01*
X006104Y009114D01*
X006059Y009159D01*
X005989Y008759D02*
X005989Y008489D01*
X005809Y008489D01*
X005695Y008489D02*
X005515Y008489D01*
X005400Y008489D02*
X005265Y008489D01*
X005220Y008534D01*
X005220Y008714D01*
X005265Y008759D01*
X005400Y008759D01*
X005400Y008489D01*
X005605Y008624D02*
X005695Y008624D01*
X005695Y008759D02*
X005515Y008759D01*
X005695Y008759D02*
X005695Y008489D01*
X006829Y009114D02*
X006829Y009384D01*
X006943Y009384D02*
X007123Y009384D01*
X007123Y009114D01*
X007123Y009249D02*
X007033Y009249D01*
X003686Y009384D02*
X003686Y009114D01*
X003506Y009114D01*
X003391Y009114D02*
X003211Y009114D01*
X003097Y009159D02*
X003052Y009114D01*
X002962Y009114D01*
X002916Y009159D01*
X002916Y009339D02*
X002962Y009384D01*
X003052Y009384D01*
X003097Y009339D01*
X003097Y009159D01*
X003391Y009114D02*
X003391Y009384D01*
M02*
